<svg xmlns="http://www.w3.org/2000/svg" version="1.1" xmlns:xlink="http://www.w3.org/1999/xlink" xmlns:svgjs="http://svgjs.com/svgjs" width="512.000000pt" height="512.000000pt"><svg version="1.0" xmlns="http://www.w3.org/2000/svg" width="512.000000pt" height="512.000000pt" viewBox="0 0 512.000000 512.000000" preserveAspectRatio="xMidYMid meet">
<metadata>
Created by potrace 1.14, written by Peter Selinger 2001-2017
</metadata>
<g transform="translate(0.000000,512.000000) scale(0.100000,-0.100000)" fill="#000000" stroke="none">
<path d="M1190 3974 c-254 -28 -431 -72 -630 -157 -123 -52 -145 -57 -267 -57
-76 -1 -106 -5 -117 -16 -18 -18 -30 -93 -22 -137 10 -52 32 -75 109 -110 81
-38 131 -76 152 -117 8 -16 21 -84 30 -152 73 -590 195 -792 540 -893 154 -45
269 -58 465 -52 485 15 758 193 860 559 11 40 34 147 50 238 17 91 35 179 41
196 10 32 49 74 87 93 35 19 127 15 170 -6 56 -27 76 -75 111 -269 52 -290 94
-406 188 -521 74 -91 121 -129 218 -177 318 -159 825 -156 1137 6 205 106 310
326 367 768 12 91 26 179 32 197 14 43 64 85 151 126 99 47 112 63 116 145 2
42 -2 76 -10 92 -13 24 -19 25 -99 26 -135 2 -180 11 -301 63 -135 58 -291
104 -448 133 -143 26 -517 31 -640 10 -195 -35 -356 -96 -525 -199 -78 -48
-143 -58 -390 -57 -255 0 -313 9 -400 64 -140 87 -317 156 -480 185 -85 16
-414 28 -495 19z m375 -305 c385 -33 507 -119 507 -357 0 -143 -29 -333 -63
-419 -54 -134 -107 -194 -215 -244 -115 -55 -182 -70 -324 -76 -154 -7 -274 8
-398 49 -133 44 -173 72 -212 151 -89 182 -157 668 -106 770 17 34 25 39 100
62 208 62 466 86 711 64z m2485 -15 c103 -15 228 -44 283 -66 63 -25 78 -121
52 -328 -33 -264 -80 -448 -133 -525 -35 -50 -82 -77 -198 -114 -122 -40 -242
-55 -394 -48 -139 5 -214 24 -338 84 -83 40 -131 89 -173 178 -74 156 -113
472 -74 603 37 124 164 193 407 221 51 6 109 13 128 15 65 8 334 -5 440 -20z"></path>
<path d="M1552 3554 c-50 -22 -123 -101 -155 -167 -117 -242 -42 -595 146
-686 55 -26 137 -27 192 -2 95 43 175 168 201 310 17 96 17 137 0 233 -26 141
-114 273 -211 314 -43 18 -130 17 -173 -2z"></path>
<path d="M3393 3549 c-56 -27 -129 -108 -157 -172 -71 -162 -67 -386 11 -529
33 -61 98 -126 148 -149 48 -22 133 -24 179 -5 197 82 279 444 158 696 -32 66
-106 143 -157 164 -53 22 -131 20 -182 -5z"></path>
<path d="M1250 1777 c-34 -17 -55 -57 -46 -90 10 -41 121 -183 226 -288 142
-143 306 -261 467 -336 108 -50 103 -54 103 95 l0 129 103 -24 c107 -24 304
-53 363 -53 l34 0 0 -260 0 -260 60 0 60 0 0 254 c0 140 3 257 8 260 4 2 59 9
122 16 64 6 173 23 243 39 l127 28 0 -129 c0 -115 2 -128 18 -128 26 0 197 88
279 143 178 121 356 293 459 447 50 74 54 98 21 136 -36 42 -68 36 -181 -36
-261 -165 -597 -292 -906 -341 -138 -22 -410 -17 -560 10 -133 25 -331 82
-458 132 -112 45 -305 143 -398 204 -97 63 -112 68 -144 52z"></path>
</g>
</svg><style>@media (prefers-color-scheme: light) { :root { filter: none; } }
@media (prefers-color-scheme: dark) { :root { filter: invert(100%); } }
</style></svg>