<?xml version="1.0" standalone="no"?>
<!DOCTYPE svg PUBLIC "-//W3C//DTD SVG 20010904//EN"
 "http://www.w3.org/TR/2001/REC-SVG-20010904/DTD/svg10.dtd">
<svg version="1.0" xmlns="http://www.w3.org/2000/svg"
 width="1280.000000pt" height="1280.000000pt" viewBox="0 0 1280.000000 1280.000000"
 preserveAspectRatio="xMidYMid meet">
<metadata>
Created by potrace 1.14, written by Peter Selinger 2001-2017
</metadata>
  <style>
    path {
      fill: #283739;
    }
    @media (prefers-color-scheme: dark) {
      path {
        fill: #ffc46b;
      }
    }
  </style>
<g transform="translate(0.000000,1280.000000) scale(0.100000,-0.100000)" stroke="none">
<path d="M8539 12795 c-2 -2 -48 -6 -101 -10 -54 -3 -105 -8 -115 -9 -10 -2
-49 -7 -87 -10 -38 -4 -73 -9 -77 -11 -3 -3 -26 -7 -50 -9 -24 -3 -55 -8 -69
-11 -14 -3 -36 -7 -50 -10 -14 -3 -40 -9 -58 -14 -18 -5 -36 -10 -40 -11 -37
-4 -283 -80 -292 -90 -3 -3 -14 -6 -25 -8 -11 -2 -81 -33 -155 -70 -335 -165
-588 -381 -879 -748 -31 -39 -57 -79 -64 -96 -3 -10 -10 -18 -15 -18 -5 0 -15
-13 -22 -30 -7 -16 -16 -30 -20 -30 -4 0 -12 -10 -19 -22 -6 -13 -19 -35 -29
-50 -75 -118 -125 -196 -135 -213 -7 -11 -25 -40 -42 -65 -37 -56 -45 -69 -69
-111 -10 -19 -22 -36 -26 -39 -3 -3 -18 -24 -31 -47 l-25 -42 -110 106 c-144
139 -350 334 -394 372 -85 75 -309 211 -346 211 -8 0 -14 5 -14 12 0 6 -3 8
-7 5 -3 -4 -11 -3 -17 2 -8 6 -122 44 -166 56 -14 3 -96 19 -105 20 -5 1 -23
4 -40 8 -116 26 -402 21 -570 -9 -10 -2 -37 -6 -60 -10 -147 -22 -498 -132
-680 -214 -22 -9 -65 -28 -95 -41 -155 -66 -377 -193 -473 -271 -46 -37 -167
-159 -167 -168 0 -4 -7 -13 -16 -21 -20 -16 -97 -135 -131 -202 -15 -29 -33
-60 -41 -69 -8 -10 -12 -18 -8 -18 3 0 -5 -23 -20 -52 -23 -45 -132 -315 -139
-343 -1 -5 -5 -17 -8 -25 -8 -21 -27 -83 -32 -106 -2 -10 -14 -53 -25 -94 -11
-41 -23 -86 -26 -100 -3 -14 -7 -33 -10 -42 -3 -9 -6 -25 -8 -35 -8 -41 -16
-89 -20 -109 -2 -12 -7 -39 -10 -60 -3 -22 -8 -55 -11 -74 -8 -49 -19 -147
-32 -285 -9 -101 -8 -658 2 -790 4 -55 7 -115 7 -132 0 -18 3 -33 7 -33 3 0 7
-24 7 -53 1 -28 4 -74 8 -102 3 -27 11 -86 16 -130 6 -44 12 -91 14 -105 3
-14 10 -59 16 -100 6 -41 14 -86 16 -100 15 -80 26 -143 29 -165 5 -33 13 -74
19 -93 3 -9 8 -33 11 -52 2 -19 9 -51 13 -70 5 -19 9 -38 10 -43 5 -23 13 -59
26 -117 9 -36 18 -76 20 -90 2 -14 5 -27 6 -30 1 -3 3 -9 4 -15 2 -10 19 -85
21 -95 1 -3 4 -12 7 -20 5 -14 46 -172 52 -202 2 -7 6 -20 9 -28 4 -8 9 -26
11 -40 3 -14 10 -41 16 -60 6 -19 13 -42 15 -51 2 -8 22 -78 45 -155 22 -76
43 -146 45 -154 2 -8 8 -27 14 -43 6 -15 13 -38 16 -50 4 -22 41 -138 52 -167
4 -8 7 -17 8 -20 48 -160 259 -745 277 -767 6 -7 8 -13 4 -13 -3 0 1 -17 10
-37 9 -21 17 -42 18 -48 3 -10 12 -32 41 -100 9 -22 18 -47 20 -55 2 -8 22
-57 44 -108 22 -51 40 -95 40 -97 1 -3 8 -21 16 -41 8 -20 15 -38 15 -40 0 -4
10 -26 59 -136 11 -26 21 -50 21 -53 0 -6 37 -91 51 -117 5 -10 9 -25 9 -33 0
-8 4 -15 9 -15 9 0 26 -48 23 -62 -1 -5 3 -8 10 -8 6 0 8 -3 5 -6 -4 -4 2 -23
12 -43 11 -20 26 -52 34 -71 20 -47 54 -123 84 -190 14 -30 33 -73 43 -95 10
-22 38 -83 63 -135 24 -52 54 -115 65 -140 75 -163 182 -383 193 -397 8 -9 12
-18 10 -20 -6 -7 21 -63 30 -63 5 0 9 -6 9 -14 0 -16 50 -118 63 -127 5 -3 9
-12 11 -20 1 -8 16 -41 33 -74 17 -33 44 -85 59 -115 16 -30 31 -57 34 -60 9
-8 34 -64 32 -72 -1 -5 2 -8 7 -8 5 0 11 -8 14 -17 3 -10 24 -49 47 -88 22
-38 43 -78 46 -87 4 -10 10 -18 15 -18 5 0 9 -5 9 -11 0 -6 27 -56 60 -111 33
-56 60 -105 60 -109 0 -5 5 -9 10 -9 6 0 10 -4 10 -9 0 -13 104 -178 214 -339
50 -74 96 -141 101 -150 6 -9 12 -19 15 -22 3 -3 25 -32 49 -65 25 -33 48 -61
53 -63 4 -2 8 -8 8 -13 0 -11 159 -212 172 -217 4 -2 8 -8 8 -12 0 -5 10 -20
23 -32 12 -13 56 -62 97 -108 86 -99 377 -390 389 -390 4 0 16 -10 28 -22 11
-13 31 -32 44 -43 75 -63 239 -194 269 -215 19 -13 37 -28 38 -32 2 -4 9 -8
16 -8 7 0 21 -9 31 -20 10 -11 23 -20 29 -20 6 0 23 -10 37 -22 27 -25 56 -44
79 -55 8 -4 17 -9 20 -13 11 -13 200 -121 310 -177 136 -69 229 -111 325 -148
39 -15 79 -31 90 -35 22 -10 118 -41 180 -59 130 -38 316 -49 402 -23 17 6 34
8 37 4 3 -3 6 -1 6 5 0 6 12 13 28 16 49 9 289 114 312 137 5 5 38 25 75 44
11 6 36 22 55 36 19 14 42 30 51 35 32 20 75 50 134 95 33 25 64 48 70 52 29
21 204 169 237 201 10 9 18 15 18 13 0 -3 84 79 188 182 161 161 240 245 334
354 11 13 39 46 63 73 23 28 69 84 101 125 32 41 62 80 66 85 5 6 22 28 39 50
16 22 36 48 44 57 8 10 27 37 42 59 16 23 35 52 43 64 8 12 32 49 54 81 21 32
43 62 48 65 5 3 9 9 9 13 -1 3 14 31 34 61 19 31 35 59 35 64 0 5 4 11 9 13 5
2 11 10 13 18 2 8 5 17 8 20 20 20 165 310 162 323 -1 4 3 7 10 7 6 0 8 3 5 7
-4 3 -3 11 2 17 18 23 92 255 105 329 3 15 7 35 10 45 3 9 8 40 10 67 11 118
20 189 26 205 1 3 2 8 1 12 0 4 6 42 14 85 7 43 16 96 20 118 3 22 7 47 10 55
5 19 16 88 19 115 1 11 4 25 8 30 4 6 9 31 12 56 3 25 7 52 10 60 3 7 8 31 11
52 3 21 9 47 15 56 5 10 7 21 4 23 -2 3 3 34 11 69 9 35 18 75 19 89 3 25 26
128 67 305 11 50 23 104 25 120 3 17 14 63 25 104 10 41 17 77 14 79 -3 3 -1
10 4 16 5 6 12 29 16 51 10 58 10 59 18 72 5 7 6 13 4 13 -4 0 2 35 18 105 2
11 6 31 9 45 2 14 7 43 12 65 4 22 8 49 9 60 1 11 4 29 7 40 4 11 9 40 12 65
3 25 8 56 11 70 3 14 7 48 10 75 3 28 8 64 11 80 3 17 7 46 9 65 2 19 7 62 11
95 3 33 7 76 9 95 2 19 4 35 5 35 0 0 3 27 5 60 2 33 6 92 9 130 11 135 17
221 21 335 2 63 5 115 5 115 21 0 17 2952 -4 2972 -3 3 -1 16 4 29 5 13 6 24
2 24 -4 0 -8 87 -8 193 -4 443 -21 1103 -40 1522 -4 83 -7 174 -8 202 -1 29
-3 53 -6 53 -3 0 -5 24 -6 53 -1 58 -13 239 -19 277 -2 14 -6 52 -10 85 -14
144 -37 301 -49 343 -3 9 -7 33 -10 52 -5 33 -13 72 -20 95 -2 6 -6 24 -10 40
-24 97 -113 317 -135 335 -3 3 -12 16 -19 30 -23 44 -121 139 -187 181 -35 22
-68 40 -72 40 -4 0 -17 6 -28 13 -18 11 -92 36 -112 37 -5 1 -15 5 -23 9 -8 4
-33 11 -55 14 -22 3 -51 8 -65 11 -14 3 -42 7 -63 10 -21 2 -42 7 -47 10 -6 3
-10 1 -10 -5 0 -6 -5 -8 -11 -4 -6 4 -25 9 -43 11 -38 5 -942 13 -947 8z m87
-720 c86 -56 115 -126 74 -178 -34 -43 -121 -82 -255 -114 -45 -10 -177 -11
-207 -1 -58 19 -69 35 -65 93 4 52 40 119 84 155 34 28 90 60 107 60 9 0 16 5
16 11 0 5 3 8 8 6 4 -2 30 -1 57 2 57 8 142 -8 181 -34z m-4670 -1041 c22 -6
46 -44 49 -78 1 -10 -9 -31 -22 -46 -19 -23 -30 -28 -60 -25 -46 4 -76 34 -75
75 1 57 50 90 108 74z m-150 -406 c17 -50 25 -164 26 -358 1 -212 -16 -322
-68 -435 -28 -60 -41 -70 -94 -69 -43 0 -54 5 -78 32 -16 18 -33 46 -38 64
-17 56 -7 204 20 303 35 127 88 270 136 367 10 20 16 39 13 42 -4 3 -1 6 5 6
7 0 12 5 12 11 0 16 34 58 47 59 6 0 15 -10 19 -22z m5582 -6615 c-1 -5 4 -33
10 -63 7 -30 16 -78 20 -105 10 -60 8 -279 -3 -350 -4 -27 -8 -57 -9 -65 -5
-37 -29 -90 -41 -90 -23 0 -38 140 -38 350 0 226 15 330 48 330 8 0 14 -3 13
-7z m4 -1025 c63 -57 60 -164 -5 -220 -62 -55 -109 23 -94 154 10 83 50 109
99 66z"/>
</g>
</svg>
